<mxfile host="app.diagrams.net" agent="Mozilla/5.0 (Windows NT 10.0; Win64; x64) AppleWebKit/537.36 (KHTML, like Gecko) Chrome/131.0.0.0 Safari/537.36 Edg/131.0.0.0" version="25.0.3">
  <diagram name="第 1 页" id="9aU37iixjl-0rO1E9T7V">
    <mxGraphModel dx="511" dy="1479" grid="1" gridSize="10" guides="1" tooltips="1" connect="1" arrows="1" fold="1" page="1" pageScale="1" pageWidth="827" pageHeight="1169" math="0" shadow="0">
      <root>
        <mxCell id="0" />
        <mxCell id="1" parent="0" />
        <mxCell id="UI6-dDAzTKjLKQ1iZGnM-1" value="community.html" style="swimlane;startSize=20;" vertex="1" parent="1">
          <mxGeometry x="110" y="80" width="320" height="340" as="geometry" />
        </mxCell>
        <mxCell id="UI6-dDAzTKjLKQ1iZGnM-4" value="Topic icon" style="swimlane;fontStyle=0;childLayout=stackLayout;horizontal=1;startSize=30;horizontalStack=0;resizeParent=1;resizeParentMax=0;resizeLast=0;collapsible=1;marginBottom=0;whiteSpace=wrap;html=1;" vertex="1" parent="UI6-dDAzTKjLKQ1iZGnM-1">
          <mxGeometry x="28" y="250" width="120" height="60" as="geometry" />
        </mxCell>
        <mxCell id="UI6-dDAzTKjLKQ1iZGnM-5" value="jump to topic1.html" style="text;strokeColor=none;fillColor=none;align=left;verticalAlign=middle;spacingLeft=4;spacingRight=4;overflow=hidden;points=[[0,0.5],[1,0.5]];portConstraint=eastwest;rotatable=0;whiteSpace=wrap;html=1;" vertex="1" parent="UI6-dDAzTKjLKQ1iZGnM-4">
          <mxGeometry y="30" width="120" height="30" as="geometry" />
        </mxCell>
        <mxCell id="UI6-dDAzTKjLKQ1iZGnM-6" value="Navigation" style="swimlane;fontStyle=0;childLayout=stackLayout;horizontal=1;startSize=30;horizontalStack=0;resizeParent=1;resizeParentMax=0;resizeLast=0;collapsible=1;marginBottom=0;whiteSpace=wrap;html=1;" vertex="1" parent="UI6-dDAzTKjLKQ1iZGnM-1">
          <mxGeometry x="172" y="40" width="130" height="60" as="geometry" />
        </mxCell>
        <mxCell id="UI6-dDAzTKjLKQ1iZGnM-7" value="jump to other htmls" style="text;strokeColor=none;fillColor=none;align=left;verticalAlign=middle;spacingLeft=4;spacingRight=4;overflow=hidden;points=[[0,0.5],[1,0.5]];portConstraint=eastwest;rotatable=0;whiteSpace=wrap;html=1;" vertex="1" parent="UI6-dDAzTKjLKQ1iZGnM-6">
          <mxGeometry y="30" width="130" height="30" as="geometry" />
        </mxCell>
        <mxCell id="UI6-dDAzTKjLKQ1iZGnM-8" value="Text Box" style="swimlane;fontStyle=0;childLayout=stackLayout;horizontal=1;startSize=30;horizontalStack=0;resizeParent=1;resizeParentMax=0;resizeLast=0;collapsible=1;marginBottom=0;whiteSpace=wrap;html=1;" vertex="1" parent="UI6-dDAzTKjLKQ1iZGnM-1">
          <mxGeometry x="28" y="40" width="120" height="60" as="geometry" />
        </mxCell>
        <mxCell id="UI6-dDAzTKjLKQ1iZGnM-9" value="search(imformation)" style="text;strokeColor=none;fillColor=none;align=left;verticalAlign=middle;spacingLeft=4;spacingRight=4;overflow=hidden;points=[[0,0.5],[1,0.5]];portConstraint=eastwest;rotatable=0;whiteSpace=wrap;html=1;" vertex="1" parent="UI6-dDAzTKjLKQ1iZGnM-8">
          <mxGeometry y="30" width="120" height="30" as="geometry" />
        </mxCell>
        <mxCell id="UI6-dDAzTKjLKQ1iZGnM-11" value="topic1.html" style="swimlane;startSize=20;" vertex="1" parent="1">
          <mxGeometry x="180" y="460" width="250" height="190" as="geometry" />
        </mxCell>
        <mxCell id="UI6-dDAzTKjLKQ1iZGnM-14" value="Text Box" style="swimlane;fontStyle=0;childLayout=stackLayout;horizontal=1;startSize=30;horizontalStack=0;resizeParent=1;resizeParentMax=0;resizeLast=0;collapsible=1;marginBottom=0;whiteSpace=wrap;html=1;" vertex="1" parent="UI6-dDAzTKjLKQ1iZGnM-11">
          <mxGeometry x="30" y="35" width="100" height="60" as="geometry" />
        </mxCell>
        <mxCell id="UI6-dDAzTKjLKQ1iZGnM-15" value="get(text)" style="text;strokeColor=none;fillColor=none;align=left;verticalAlign=middle;spacingLeft=4;spacingRight=4;overflow=hidden;points=[[0,0.5],[1,0.5]];portConstraint=eastwest;rotatable=0;whiteSpace=wrap;html=1;" vertex="1" parent="UI6-dDAzTKjLKQ1iZGnM-14">
          <mxGeometry y="30" width="100" height="30" as="geometry" />
        </mxCell>
        <mxCell id="UI6-dDAzTKjLKQ1iZGnM-16" value="topic.html" style="swimlane;startSize=20;" vertex="1" parent="1">
          <mxGeometry x="520" y="200" width="280" height="210" as="geometry" />
        </mxCell>
        <mxCell id="UI6-dDAzTKjLKQ1iZGnM-19" value="Text Box" style="swimlane;fontStyle=0;childLayout=stackLayout;horizontal=1;startSize=30;horizontalStack=0;resizeParent=1;resizeParentMax=0;resizeLast=0;collapsible=1;marginBottom=0;whiteSpace=wrap;html=1;" vertex="1" parent="UI6-dDAzTKjLKQ1iZGnM-16">
          <mxGeometry x="50" y="40" width="100" height="60" as="geometry" />
        </mxCell>
        <mxCell id="UI6-dDAzTKjLKQ1iZGnM-20" value="get(text)" style="text;strokeColor=none;fillColor=none;align=left;verticalAlign=middle;spacingLeft=4;spacingRight=4;overflow=hidden;points=[[0,0.5],[1,0.5]];portConstraint=eastwest;rotatable=0;whiteSpace=wrap;html=1;" vertex="1" parent="UI6-dDAzTKjLKQ1iZGnM-19">
          <mxGeometry y="30" width="100" height="30" as="geometry" />
        </mxCell>
        <mxCell id="UI6-dDAzTKjLKQ1iZGnM-21" value="Flask" style="swimlane;startSize=20;" vertex="1" parent="1">
          <mxGeometry x="600" y="465" width="200" height="110" as="geometry" />
        </mxCell>
        <mxCell id="UI6-dDAzTKjLKQ1iZGnM-22" value="/register" style="whiteSpace=wrap;html=1;" vertex="1" parent="UI6-dDAzTKjLKQ1iZGnM-21">
          <mxGeometry x="10" y="30" width="70" height="20" as="geometry" />
        </mxCell>
        <mxCell id="UI6-dDAzTKjLKQ1iZGnM-23" value="/reset-password" style="whiteSpace=wrap;html=1;" vertex="1" parent="UI6-dDAzTKjLKQ1iZGnM-21">
          <mxGeometry x="90" y="30" width="100" height="20" as="geometry" />
        </mxCell>
        <mxCell id="UI6-dDAzTKjLKQ1iZGnM-24" value="/login" style="whiteSpace=wrap;html=1;" vertex="1" parent="UI6-dDAzTKjLKQ1iZGnM-21">
          <mxGeometry x="10" y="60" width="70" height="20" as="geometry" />
        </mxCell>
        <mxCell id="UI6-dDAzTKjLKQ1iZGnM-25" value="/forgot-password" style="whiteSpace=wrap;html=1;" vertex="1" parent="UI6-dDAzTKjLKQ1iZGnM-21">
          <mxGeometry x="90" y="60" width="100" height="20" as="geometry" />
        </mxCell>
        <mxCell id="UI6-dDAzTKjLKQ1iZGnM-26" value="/submit-feedback" style="whiteSpace=wrap;html=1;" vertex="1" parent="UI6-dDAzTKjLKQ1iZGnM-21">
          <mxGeometry x="50" y="85" width="100" height="20" as="geometry" />
        </mxCell>
        <mxCell id="UI6-dDAzTKjLKQ1iZGnM-27" value="Mysql" style="swimlane;startSize=20;" vertex="1" parent="1">
          <mxGeometry x="520" y="610" width="280" height="100" as="geometry" />
        </mxCell>
        <mxCell id="UI6-dDAzTKjLKQ1iZGnM-28" value="user table" style="whiteSpace=wrap;html=1;" vertex="1" parent="UI6-dDAzTKjLKQ1iZGnM-27">
          <mxGeometry x="20" y="32.5" width="90" height="25" as="geometry" />
        </mxCell>
        <mxCell id="UI6-dDAzTKjLKQ1iZGnM-30" value="admin table" style="whiteSpace=wrap;html=1;" vertex="1" parent="UI6-dDAzTKjLKQ1iZGnM-27">
          <mxGeometry x="80" y="70" width="90" height="25" as="geometry" />
        </mxCell>
        <mxCell id="UI6-dDAzTKjLKQ1iZGnM-60" value="topic table" style="whiteSpace=wrap;html=1;" vertex="1" parent="UI6-dDAzTKjLKQ1iZGnM-27">
          <mxGeometry x="150" y="32.5" width="90" height="25" as="geometry" />
        </mxCell>
        <mxCell id="UI6-dDAzTKjLKQ1iZGnM-31" value="" style="rounded=0;orthogonalLoop=1;jettySize=auto;html=1;endArrow=oval;endFill=0;sketch=0;sourcePerimeterSpacing=0;targetPerimeterSpacing=0;endSize=10;" edge="1" parent="1" target="UI6-dDAzTKjLKQ1iZGnM-43">
          <mxGeometry relative="1" as="geometry">
            <mxPoint x="470" y="380" as="sourcePoint" />
          </mxGeometry>
        </mxCell>
        <mxCell id="UI6-dDAzTKjLKQ1iZGnM-32" value="" style="rounded=0;orthogonalLoop=1;jettySize=auto;html=1;endArrow=halfCircle;endFill=0;endSize=6;strokeWidth=1;sketch=0;entryX=0.405;entryY=0.595;entryDx=0;entryDy=0;entryPerimeter=0;" edge="1" parent="1" target="UI6-dDAzTKjLKQ1iZGnM-34">
          <mxGeometry relative="1" as="geometry">
            <mxPoint x="130" y="420" as="sourcePoint" />
            <mxPoint x="130" y="430" as="targetPoint" />
          </mxGeometry>
        </mxCell>
        <mxCell id="UI6-dDAzTKjLKQ1iZGnM-33" value="" style="rounded=0;orthogonalLoop=1;jettySize=auto;html=1;endArrow=oval;endFill=0;sketch=0;sourcePerimeterSpacing=0;targetPerimeterSpacing=0;endSize=10;" edge="1" parent="1" target="UI6-dDAzTKjLKQ1iZGnM-34">
          <mxGeometry relative="1" as="geometry">
            <mxPoint x="130" y="510" as="sourcePoint" />
          </mxGeometry>
        </mxCell>
        <mxCell id="UI6-dDAzTKjLKQ1iZGnM-34" value="" style="ellipse;whiteSpace=wrap;html=1;align=center;aspect=fixed;fillColor=none;strokeColor=none;resizable=0;perimeter=centerPerimeter;rotatable=0;allowArrows=0;points=[];outlineConnect=1;" vertex="1" parent="1">
          <mxGeometry x="125" y="430" width="10" height="10" as="geometry" />
        </mxCell>
        <mxCell id="UI6-dDAzTKjLKQ1iZGnM-35" value="" style="rounded=0;orthogonalLoop=1;jettySize=auto;html=1;endArrow=halfCircle;endFill=0;endSize=6;strokeWidth=1;sketch=0;" edge="1" parent="1" target="UI6-dDAzTKjLKQ1iZGnM-37">
          <mxGeometry relative="1" as="geometry">
            <mxPoint x="180" y="510" as="sourcePoint" />
          </mxGeometry>
        </mxCell>
        <mxCell id="UI6-dDAzTKjLKQ1iZGnM-36" value="" style="rounded=0;orthogonalLoop=1;jettySize=auto;html=1;endArrow=oval;endFill=0;sketch=0;sourcePerimeterSpacing=0;targetPerimeterSpacing=0;endSize=10;" edge="1" parent="1" target="UI6-dDAzTKjLKQ1iZGnM-37">
          <mxGeometry relative="1" as="geometry">
            <mxPoint x="130" y="510" as="sourcePoint" />
          </mxGeometry>
        </mxCell>
        <mxCell id="UI6-dDAzTKjLKQ1iZGnM-37" value="" style="ellipse;whiteSpace=wrap;html=1;align=center;aspect=fixed;fillColor=none;strokeColor=none;resizable=0;perimeter=centerPerimeter;rotatable=0;allowArrows=0;points=[];outlineConnect=1;" vertex="1" parent="1">
          <mxGeometry x="155" y="505" width="10" height="10" as="geometry" />
        </mxCell>
        <mxCell id="UI6-dDAzTKjLKQ1iZGnM-38" value="" style="rounded=0;orthogonalLoop=1;jettySize=auto;html=1;endArrow=halfCircle;endFill=0;endSize=6;strokeWidth=1;sketch=0;" edge="1" parent="1">
          <mxGeometry relative="1" as="geometry">
            <mxPoint x="430" y="380" as="sourcePoint" />
            <mxPoint x="450" y="380" as="targetPoint" />
          </mxGeometry>
        </mxCell>
        <mxCell id="UI6-dDAzTKjLKQ1iZGnM-39" value="" style="rounded=0;orthogonalLoop=1;jettySize=auto;html=1;endArrow=oval;endFill=0;sketch=0;sourcePerimeterSpacing=0;targetPerimeterSpacing=0;endSize=10;" edge="1" parent="1">
          <mxGeometry relative="1" as="geometry">
            <mxPoint x="470" y="380" as="sourcePoint" />
            <mxPoint x="450" y="380" as="targetPoint" />
          </mxGeometry>
        </mxCell>
        <mxCell id="UI6-dDAzTKjLKQ1iZGnM-40" value="" style="ellipse;whiteSpace=wrap;html=1;align=center;aspect=fixed;fillColor=none;strokeColor=none;resizable=0;perimeter=centerPerimeter;rotatable=0;allowArrows=0;points=[];outlineConnect=1;" vertex="1" parent="1">
          <mxGeometry x="480" y="340" width="10" height="10" as="geometry" />
        </mxCell>
        <mxCell id="UI6-dDAzTKjLKQ1iZGnM-41" value="" style="rounded=0;orthogonalLoop=1;jettySize=auto;html=1;endArrow=halfCircle;endFill=0;endSize=6;strokeWidth=1;sketch=0;" edge="1" parent="1" source="UI6-dDAzTKjLKQ1iZGnM-43">
          <mxGeometry relative="1" as="geometry">
            <mxPoint x="520" y="380" as="sourcePoint" />
            <mxPoint x="500" y="380" as="targetPoint" />
          </mxGeometry>
        </mxCell>
        <mxCell id="UI6-dDAzTKjLKQ1iZGnM-42" value="" style="rounded=0;orthogonalLoop=1;jettySize=auto;html=1;endArrow=halfCircle;endFill=0;endSize=6;strokeWidth=1;sketch=0;" edge="1" parent="1" target="UI6-dDAzTKjLKQ1iZGnM-43">
          <mxGeometry relative="1" as="geometry">
            <mxPoint x="520" y="380" as="sourcePoint" />
            <mxPoint x="500" y="380" as="targetPoint" />
          </mxGeometry>
        </mxCell>
        <mxCell id="UI6-dDAzTKjLKQ1iZGnM-43" value="" style="ellipse;whiteSpace=wrap;html=1;align=center;aspect=fixed;fillColor=none;strokeColor=none;resizable=0;perimeter=centerPerimeter;rotatable=0;allowArrows=0;points=[];outlineConnect=1;" vertex="1" parent="1">
          <mxGeometry x="495" y="375" width="10" height="10" as="geometry" />
        </mxCell>
        <mxCell id="UI6-dDAzTKjLKQ1iZGnM-44" value="" style="rounded=0;orthogonalLoop=1;jettySize=auto;html=1;endArrow=halfCircle;endFill=0;endSize=6;strokeWidth=1;sketch=0;" edge="1" parent="1" target="UI6-dDAzTKjLKQ1iZGnM-46">
          <mxGeometry relative="1" as="geometry">
            <mxPoint x="600" y="500" as="sourcePoint" />
          </mxGeometry>
        </mxCell>
        <mxCell id="UI6-dDAzTKjLKQ1iZGnM-45" value="" style="rounded=0;orthogonalLoop=1;jettySize=auto;html=1;endArrow=oval;endFill=0;sketch=0;sourcePerimeterSpacing=0;targetPerimeterSpacing=0;endSize=10;" edge="1" parent="1" target="UI6-dDAzTKjLKQ1iZGnM-46">
          <mxGeometry relative="1" as="geometry">
            <mxPoint x="550" y="500" as="sourcePoint" />
          </mxGeometry>
        </mxCell>
        <mxCell id="UI6-dDAzTKjLKQ1iZGnM-46" value="" style="ellipse;whiteSpace=wrap;html=1;align=center;aspect=fixed;fillColor=none;strokeColor=none;resizable=0;perimeter=centerPerimeter;rotatable=0;allowArrows=0;points=[];outlineConnect=1;" vertex="1" parent="1">
          <mxGeometry x="575" y="495" width="10" height="10" as="geometry" />
        </mxCell>
        <mxCell id="UI6-dDAzTKjLKQ1iZGnM-47" value="" style="rounded=0;orthogonalLoop=1;jettySize=auto;html=1;endArrow=halfCircle;endFill=0;endSize=6;strokeWidth=1;sketch=0;" edge="1" parent="1" target="UI6-dDAzTKjLKQ1iZGnM-49">
          <mxGeometry relative="1" as="geometry">
            <mxPoint x="520" y="675" as="sourcePoint" />
          </mxGeometry>
        </mxCell>
        <mxCell id="UI6-dDAzTKjLKQ1iZGnM-48" value="" style="rounded=0;orthogonalLoop=1;jettySize=auto;html=1;endArrow=oval;endFill=0;sketch=0;sourcePerimeterSpacing=0;targetPerimeterSpacing=0;endSize=10;" edge="1" parent="1" target="UI6-dDAzTKjLKQ1iZGnM-49">
          <mxGeometry relative="1" as="geometry">
            <mxPoint x="470" y="675" as="sourcePoint" />
          </mxGeometry>
        </mxCell>
        <mxCell id="UI6-dDAzTKjLKQ1iZGnM-49" value="" style="ellipse;whiteSpace=wrap;html=1;align=center;aspect=fixed;fillColor=none;strokeColor=none;resizable=0;perimeter=centerPerimeter;rotatable=0;allowArrows=0;points=[];outlineConnect=1;" vertex="1" parent="1">
          <mxGeometry x="495" y="670" width="10" height="10" as="geometry" />
        </mxCell>
        <mxCell id="UI6-dDAzTKjLKQ1iZGnM-50" value="" style="rounded=0;orthogonalLoop=1;jettySize=auto;html=1;endArrow=halfCircle;endFill=0;endSize=6;strokeWidth=1;sketch=0;" edge="1" parent="1" target="UI6-dDAzTKjLKQ1iZGnM-52">
          <mxGeometry relative="1" as="geometry">
            <mxPoint x="600" y="520" as="sourcePoint" />
          </mxGeometry>
        </mxCell>
        <mxCell id="UI6-dDAzTKjLKQ1iZGnM-51" value="" style="rounded=0;orthogonalLoop=1;jettySize=auto;html=1;endArrow=oval;endFill=0;sketch=0;sourcePerimeterSpacing=0;targetPerimeterSpacing=0;endSize=10;" edge="1" parent="1" target="UI6-dDAzTKjLKQ1iZGnM-52">
          <mxGeometry relative="1" as="geometry">
            <mxPoint x="560" y="520" as="sourcePoint" />
          </mxGeometry>
        </mxCell>
        <mxCell id="UI6-dDAzTKjLKQ1iZGnM-52" value="" style="ellipse;whiteSpace=wrap;html=1;align=center;aspect=fixed;fillColor=none;strokeColor=none;resizable=0;perimeter=centerPerimeter;rotatable=0;allowArrows=0;points=[];outlineConnect=1;" vertex="1" parent="1">
          <mxGeometry x="575" y="515" width="10" height="10" as="geometry" />
        </mxCell>
        <mxCell id="UI6-dDAzTKjLKQ1iZGnM-57" value="" style="endArrow=none;html=1;rounded=0;" edge="1" parent="1">
          <mxGeometry width="50" height="50" relative="1" as="geometry">
            <mxPoint x="550" y="500" as="sourcePoint" />
            <mxPoint x="550" y="430" as="targetPoint" />
          </mxGeometry>
        </mxCell>
        <mxCell id="UI6-dDAzTKjLKQ1iZGnM-58" value="" style="endArrow=none;html=1;rounded=0;" edge="1" parent="1">
          <mxGeometry width="50" height="50" relative="1" as="geometry">
            <mxPoint x="470" y="520" as="sourcePoint" />
            <mxPoint x="560" y="520" as="targetPoint" />
          </mxGeometry>
        </mxCell>
        <mxCell id="UI6-dDAzTKjLKQ1iZGnM-59" value="" style="endArrow=none;html=1;rounded=0;" edge="1" parent="1">
          <mxGeometry width="50" height="50" relative="1" as="geometry">
            <mxPoint x="470" y="675" as="sourcePoint" />
            <mxPoint x="470" y="520" as="targetPoint" />
          </mxGeometry>
        </mxCell>
        <mxCell id="UI6-dDAzTKjLKQ1iZGnM-62" value="center.html" style="swimlane;startSize=20;" vertex="1" parent="1">
          <mxGeometry x="520" y="-70" width="280" height="210" as="geometry" />
        </mxCell>
        <mxCell id="UI6-dDAzTKjLKQ1iZGnM-63" value="Register Button" style="swimlane;fontStyle=0;childLayout=stackLayout;horizontal=1;startSize=30;horizontalStack=0;resizeParent=1;resizeParentMax=0;resizeLast=0;collapsible=1;marginBottom=0;whiteSpace=wrap;html=1;" vertex="1" parent="UI6-dDAzTKjLKQ1iZGnM-62">
          <mxGeometry x="20" y="130" width="130" height="60" as="geometry" />
        </mxCell>
        <mxCell id="UI6-dDAzTKjLKQ1iZGnM-64" value="click(/register,POST)" style="text;strokeColor=none;fillColor=none;align=left;verticalAlign=middle;spacingLeft=4;spacingRight=4;overflow=hidden;points=[[0,0.5],[1,0.5]];portConstraint=eastwest;rotatable=0;whiteSpace=wrap;html=1;" vertex="1" parent="UI6-dDAzTKjLKQ1iZGnM-63">
          <mxGeometry y="30" width="130" height="30" as="geometry" />
        </mxCell>
        <mxCell id="UI6-dDAzTKjLKQ1iZGnM-65" value="Text Box" style="swimlane;fontStyle=0;childLayout=stackLayout;horizontal=1;startSize=30;horizontalStack=0;resizeParent=1;resizeParentMax=0;resizeLast=0;collapsible=1;marginBottom=0;whiteSpace=wrap;html=1;" vertex="1" parent="UI6-dDAzTKjLKQ1iZGnM-62">
          <mxGeometry x="50" y="40" width="100" height="60" as="geometry" />
        </mxCell>
        <mxCell id="UI6-dDAzTKjLKQ1iZGnM-66" value="get(text)" style="text;strokeColor=none;fillColor=none;align=left;verticalAlign=middle;spacingLeft=4;spacingRight=4;overflow=hidden;points=[[0,0.5],[1,0.5]];portConstraint=eastwest;rotatable=0;whiteSpace=wrap;html=1;" vertex="1" parent="UI6-dDAzTKjLKQ1iZGnM-65">
          <mxGeometry y="30" width="100" height="30" as="geometry" />
        </mxCell>
        <mxCell id="UI6-dDAzTKjLKQ1iZGnM-72" value="" style="rounded=0;orthogonalLoop=1;jettySize=auto;html=1;endArrow=halfCircle;endFill=0;endSize=6;strokeWidth=1;sketch=0;" edge="1" parent="1">
          <mxGeometry relative="1" as="geometry">
            <mxPoint x="550" y="410" as="sourcePoint" />
            <mxPoint x="550" y="420" as="targetPoint" />
          </mxGeometry>
        </mxCell>
        <mxCell id="UI6-dDAzTKjLKQ1iZGnM-73" value="" style="rounded=0;orthogonalLoop=1;jettySize=auto;html=1;endArrow=oval;endFill=0;sketch=0;sourcePerimeterSpacing=0;targetPerimeterSpacing=0;endSize=10;" edge="1" parent="1">
          <mxGeometry relative="1" as="geometry">
            <mxPoint x="550" y="430" as="sourcePoint" />
            <mxPoint x="550" y="420" as="targetPoint" />
          </mxGeometry>
        </mxCell>
        <mxCell id="UI6-dDAzTKjLKQ1iZGnM-74" value="" style="ellipse;whiteSpace=wrap;html=1;align=center;aspect=fixed;fillColor=none;strokeColor=none;resizable=0;perimeter=centerPerimeter;rotatable=0;allowArrows=0;points=[];outlineConnect=1;" vertex="1" parent="1">
          <mxGeometry x="520" y="420" width="10" height="10" as="geometry" />
        </mxCell>
        <mxCell id="UI6-dDAzTKjLKQ1iZGnM-75" value="" style="rounded=0;orthogonalLoop=1;jettySize=auto;html=1;endArrow=halfCircle;endFill=0;endSize=6;strokeWidth=1;sketch=0;" edge="1" parent="1">
          <mxGeometry relative="1" as="geometry">
            <mxPoint x="430" y="120" as="sourcePoint" />
            <mxPoint x="450" y="120" as="targetPoint" />
          </mxGeometry>
        </mxCell>
        <mxCell id="UI6-dDAzTKjLKQ1iZGnM-76" value="" style="rounded=0;orthogonalLoop=1;jettySize=auto;html=1;endArrow=oval;endFill=0;sketch=0;sourcePerimeterSpacing=0;targetPerimeterSpacing=0;endSize=10;" edge="1" parent="1">
          <mxGeometry relative="1" as="geometry">
            <mxPoint x="470" y="120" as="sourcePoint" />
            <mxPoint x="450" y="120" as="targetPoint" />
          </mxGeometry>
        </mxCell>
        <mxCell id="UI6-dDAzTKjLKQ1iZGnM-77" value="" style="ellipse;whiteSpace=wrap;html=1;align=center;aspect=fixed;fillColor=none;strokeColor=none;resizable=0;perimeter=centerPerimeter;rotatable=0;allowArrows=0;points=[];outlineConnect=1;" vertex="1" parent="1">
          <mxGeometry x="455" y="130" width="10" height="10" as="geometry" />
        </mxCell>
        <mxCell id="UI6-dDAzTKjLKQ1iZGnM-78" value="" style="rounded=0;orthogonalLoop=1;jettySize=auto;html=1;endArrow=halfCircle;endFill=0;endSize=6;strokeWidth=1;sketch=0;" edge="1" parent="1">
          <mxGeometry relative="1" as="geometry">
            <mxPoint x="520" y="120" as="sourcePoint" />
            <mxPoint x="500" y="120" as="targetPoint" />
          </mxGeometry>
        </mxCell>
        <mxCell id="UI6-dDAzTKjLKQ1iZGnM-79" value="" style="rounded=0;orthogonalLoop=1;jettySize=auto;html=1;endArrow=oval;endFill=0;sketch=0;sourcePerimeterSpacing=0;targetPerimeterSpacing=0;endSize=10;" edge="1" parent="1">
          <mxGeometry relative="1" as="geometry">
            <mxPoint x="470" y="120" as="sourcePoint" />
            <mxPoint x="500" y="120" as="targetPoint" />
          </mxGeometry>
        </mxCell>
        <mxCell id="UI6-dDAzTKjLKQ1iZGnM-80" value="" style="ellipse;whiteSpace=wrap;html=1;align=center;aspect=fixed;fillColor=none;strokeColor=none;resizable=0;perimeter=centerPerimeter;rotatable=0;allowArrows=0;points=[];outlineConnect=1;" vertex="1" parent="1">
          <mxGeometry x="495" y="120" width="10" height="10" as="geometry" />
        </mxCell>
        <mxCell id="UI6-dDAzTKjLKQ1iZGnM-81" value="" style="rounded=0;orthogonalLoop=1;jettySize=auto;html=1;endArrow=halfCircle;endFill=0;endSize=6;strokeWidth=1;sketch=0;" edge="1" target="UI6-dDAzTKjLKQ1iZGnM-83" parent="1">
          <mxGeometry relative="1" as="geometry">
            <mxPoint x="430" y="500" as="sourcePoint" />
          </mxGeometry>
        </mxCell>
        <mxCell id="UI6-dDAzTKjLKQ1iZGnM-82" value="" style="rounded=0;orthogonalLoop=1;jettySize=auto;html=1;endArrow=oval;endFill=0;sketch=0;sourcePerimeterSpacing=0;targetPerimeterSpacing=0;endSize=10;" edge="1" target="UI6-dDAzTKjLKQ1iZGnM-83" parent="1">
          <mxGeometry relative="1" as="geometry">
            <mxPoint x="550" y="500" as="sourcePoint" />
          </mxGeometry>
        </mxCell>
        <mxCell id="UI6-dDAzTKjLKQ1iZGnM-83" value="" style="ellipse;whiteSpace=wrap;html=1;align=center;aspect=fixed;fillColor=none;strokeColor=none;resizable=0;perimeter=centerPerimeter;rotatable=0;allowArrows=0;points=[];outlineConnect=1;" vertex="1" parent="1">
          <mxGeometry x="445" y="495" width="10" height="10" as="geometry" />
        </mxCell>
        <mxCell id="UI6-dDAzTKjLKQ1iZGnM-84" value="" style="rounded=0;orthogonalLoop=1;jettySize=auto;html=1;endArrow=halfCircle;endFill=0;endSize=6;strokeWidth=1;sketch=0;" edge="1" parent="1">
          <mxGeometry relative="1" as="geometry">
            <mxPoint x="430" y="410" as="sourcePoint" />
            <mxPoint x="450" y="410" as="targetPoint" />
          </mxGeometry>
        </mxCell>
        <mxCell id="UI6-dDAzTKjLKQ1iZGnM-85" value="" style="rounded=0;orthogonalLoop=1;jettySize=auto;html=1;endArrow=oval;endFill=0;sketch=0;sourcePerimeterSpacing=0;targetPerimeterSpacing=0;endSize=10;" edge="1" parent="1">
          <mxGeometry relative="1" as="geometry">
            <mxPoint x="470" y="410" as="sourcePoint" />
            <mxPoint x="450" y="410" as="targetPoint" />
          </mxGeometry>
        </mxCell>
        <mxCell id="UI6-dDAzTKjLKQ1iZGnM-86" value="" style="endArrow=none;html=1;rounded=0;" edge="1" parent="1">
          <mxGeometry width="50" height="50" relative="1" as="geometry">
            <mxPoint x="470" y="500" as="sourcePoint" />
            <mxPoint x="470" y="410" as="targetPoint" />
          </mxGeometry>
        </mxCell>
        <mxCell id="UI6-dDAzTKjLKQ1iZGnM-87" value="" style="rounded=0;orthogonalLoop=1;jettySize=auto;html=1;endArrow=halfCircle;endFill=0;endSize=6;strokeWidth=1;sketch=0;" edge="1" parent="1">
          <mxGeometry relative="1" as="geometry">
            <mxPoint x="800" y="120" as="sourcePoint" />
            <mxPoint x="820" y="120" as="targetPoint" />
          </mxGeometry>
        </mxCell>
        <mxCell id="UI6-dDAzTKjLKQ1iZGnM-88" value="" style="rounded=0;orthogonalLoop=1;jettySize=auto;html=1;endArrow=oval;endFill=0;sketch=0;sourcePerimeterSpacing=0;targetPerimeterSpacing=0;endSize=10;" edge="1" parent="1">
          <mxGeometry relative="1" as="geometry">
            <mxPoint x="820" y="540.2757947198276" as="sourcePoint" />
            <mxPoint x="820" y="120" as="targetPoint" />
          </mxGeometry>
        </mxCell>
        <mxCell id="UI6-dDAzTKjLKQ1iZGnM-89" value="" style="ellipse;whiteSpace=wrap;html=1;align=center;aspect=fixed;fillColor=none;strokeColor=none;resizable=0;perimeter=centerPerimeter;rotatable=0;allowArrows=0;points=[];outlineConnect=1;" vertex="1" parent="1">
          <mxGeometry x="835" y="120" width="10" height="10" as="geometry" />
        </mxCell>
      </root>
    </mxGraphModel>
  </diagram>
</mxfile>
